<svg width="300" height="78" viewBox="0 0 300 78" fill="none" xmlns="http://www.w3.org/2000/svg">
<path d="M50.9557 21.8073L19.5403 36.1901V17.8183C19.5403 14.441 22.277 11.675 25.6836 11.675H55.4978L50.9557 21.8073Z" fill="#1DA1F2"/>
<path d="M74.1598 41.8094V60.1812C74.1598 63.5586 71.423 66.3247 68.0165 66.3247H38.2314L42.7444 56.2216L74.1598 41.8094Z" fill="#1DA1F2"/>
<path d="M50.9556 21.8072L24.6353 33.861V20.2349C24.6353 18.3425 26.1493 16.8285 28.0418 16.8285H53.1683L50.9556 21.8072Z" fill="#1B73A9"/>
<path d="M69.0363 44.139V57.7651C69.0363 59.6576 67.5222 61.1716 65.6298 61.1716H40.5032L42.7451 56.1637L69.0363 44.139Z" fill="#1B73A9"/>
<path d="M80.7119 38.8107V60.9385C80.7119 67.5185 75.3838 72.8757 68.7746 72.8757H35.2919L32.9918 78H70.4923C78.9648 78 85.8361 71.1287 85.8361 62.6562V36.4815L80.7119 38.8107ZM23.209 0.0291171C14.7364 0.0291171 7.86523 6.90035 7.86523 15.3438V41.5185L12.9895 39.1893V17.0616C12.9895 10.4815 18.3176 5.12431 24.9268 5.12431H58.4385L60.7387 0H23.209V0.0291171Z" fill="white"/>
<path fill-rule="evenodd" clip-rule="evenodd" d="M0.498658 52.1451L44.8122 31.8226C45.54 31.5023 46.268 32.2302 45.9477 32.9873L26.0328 77.4755C25.7417 78.1451 24.7517 78.1451 24.4606 77.4464L17.5602 60.938C17.4729 60.7341 17.2982 60.5594 17.0944 60.472L0.527774 53.7174C-0.170994 53.4262 -0.170994 52.4654 0.498658 52.1451ZM12.9312 51.8538L34.9424 41.7801C35.6703 41.4597 36.3981 42.1876 36.0779 42.9156L26.1787 65.014C25.8875 65.6838 24.8976 65.6838 24.6064 64.9849L21.3164 57.1239C21.229 56.92 21.0543 56.7453 20.8506 56.658L12.9603 53.4262C12.2615 53.135 12.2615 52.1742 12.9312 51.8538Z" fill="white"/>
<path fill-rule="evenodd" clip-rule="evenodd" d="M93.202 25.8541L48.8883 46.1475C48.1896 46.4969 47.4326 45.7398 47.7529 45.0411L67.6677 0.523687C67.9589 -0.145967 68.9488 -0.145974 69.24 0.552794L76.1403 17.0612C76.2276 17.265 76.4023 17.4396 76.6062 17.527L93.1729 24.2818C93.8716 24.573 93.8716 25.5338 93.202 25.8541ZM80.7696 26.145L58.7584 36.219C58.0305 36.5391 57.3025 35.8113 57.6229 35.0835L67.5221 12.9849C67.8133 12.3152 68.8032 12.3152 69.0944 13.014L72.3845 20.8752C72.4716 21.079 72.6464 21.2536 72.8502 21.3409L80.7405 24.5727C81.4392 24.8639 81.4392 25.8247 80.7696 26.145Z" fill="white"/>
<path d="M103.488 63.493L108.541 67.9467H133.036V47.7767H118.348V54.2431H126.142V61.0522H111.368L110.383 60.2384V41.439L111.368 40.5824H132.993V33.6879H108.541L103.488 38.1415V63.493Z" fill="white"/>
<path d="M159.892 59.5534L163.061 67.9467H170.127L156.937 33.6879H149.015L136.81 67.9467H143.919L146.874 59.5534L149.315 52.7015L152.826 42.7664H153.511L157.28 52.7015L159.892 59.5534Z" fill="white"/>
<path d="M206.587 33.6879H214.767V67.9467H207.872V45.079L194.64 64.735H193.996L180.764 45.079V67.9467H173.912V33.6879H181.877L194.211 51.9735L206.587 33.6879Z" fill="white"/>
<path d="M220.667 33.6879V67.9467H227.562V33.6879H220.667Z" fill="white"/>
<path d="M256.117 33.6879H263.013V67.9467H258.43L240.316 46.3207V67.9467H233.464V33.6879H238.774L256.117 54.1575V33.6879Z" fill="white"/>
<path d="M268.927 63.493L273.981 67.9467H298.475V47.7767H283.787V54.2431H291.581V61.0522H276.806L275.822 60.2384V41.439L276.806 40.5824H298.433V33.6879H273.981L268.927 38.1415V63.493Z" fill="white"/>
<path d="M152.974 54.3189L148.03 67.335C147.886 67.7366 148.284 68.1264 148.693 67.9611L153.299 66.0712C153.42 66.024 153.564 66.0239 153.685 66.0712L158.303 67.9256C158.713 68.091 159.123 67.6894 158.966 67.2996L153.914 54.3189C153.745 53.8937 153.142 53.8937 152.974 54.3189Z" fill="#1DA1F2"/>
<path d="M106.285 26.3467L103.421 23.823V9.45708L106.285 6.93335H120.117V13.4368H116.452V10.8403H107.886L107.304 11.3256V21.9544L107.886 22.4398H120.092V26.3467H106.285Z" fill="white"/>
<path fill-rule="evenodd" clip-rule="evenodd" d="M128.716 26.3467L125.852 23.823V9.45708L128.716 6.93335H139.708L142.596 9.45708V23.823L139.708 26.3467H128.716ZM130.317 22.4398H138.083L138.689 21.9544V11.3013L138.083 10.8403H130.317L129.735 11.3013V21.9544L130.317 22.4398Z" fill="white"/>
<path d="M171.652 6.93335H167.017L160.004 17.2952L153.015 6.93335H148.501V26.3467H152.384V13.3883L159.882 24.5267H160.246L167.745 13.3883V26.3467H171.652V6.93335Z" fill="white"/>
<path d="M196.18 6.93335H200.815V26.3467H196.908V13.3883L189.41 24.5267H189.046L181.548 13.3883V26.3467H177.665V6.93335H182.179L189.167 17.2952L196.18 6.93335Z" fill="white"/>
<path d="M206.828 23.8715L209.692 26.3467H220.83L223.524 23.8715L223.572 6.93335H219.665V21.9544L219.083 22.4398H211.293L210.735 21.9544V6.93335H206.828V23.8715Z" fill="white"/>
<path d="M242.431 6.93335H246.338V26.3467H243.741L233.477 14.092V26.3467H229.594V6.93335H232.603L242.431 18.5328V6.93335Z" fill="white"/>
<path d="M252.359 6.93335V26.3467H256.266V6.93335H252.359Z" fill="white"/>
<path d="M267.982 26.3467V10.8403H262.037V6.93335H277.81V10.8403H271.889V26.3467H267.982Z" fill="white"/>
<path d="M292.869 17.8776L299.543 6.93335H294.908L290.904 13.7523L287.021 6.93335H282.386L288.962 17.8048L288.987 26.3467L292.869 26.3224V17.8776Z" fill="white"/>
</svg>
